<svg width="422" height="348" viewBox="0 0 422 348" fill="none" xmlns="http://www.w3.org/2000/svg">
<path d="M86.6523 1.07812C93.2604 1.07812 96.5645 5.40755 96.5645 14.0664V35.5996C96.5645 65.4499 105.793 155.115 124.25 304.594V310.062C124.25 320.772 120.718 326.127 113.654 326.127C107.274 325.215 104.084 322.025 104.084 316.557V309.037C104.084 295.593 98.2734 247.855 86.6523 165.824C55.207 167.647 39.4844 170.154 39.4844 173.344L40.5098 174.711V175.395C43.472 222.562 44.9531 265.629 44.9531 304.594V331.938C44.9531 342.419 40.9655 347.66 32.9902 347.66C27.7493 347.66 24.901 343.673 24.4453 335.697V310.062C24.4453 264.49 22.9642 220.398 20.002 177.787H17.9512C12.2546 177.787 7.92513 175.281 4.96289 170.268V164.799C8.83659 159.33 13.166 156.482 17.9512 156.254C17.9512 138.936 12.1406 92.6797 0.519531 17.4844C0.519531 11.7878 4.84896 8.48372 13.5078 7.57227C19.2044 7.57227 23.5339 24.0924 26.4961 57.1328C29.4583 71.7161 33.332 102.592 38.1172 149.76H39.4844L85.627 145.316C78.3353 86.7552 74.6895 44.7142 74.6895 19.1934C74.6895 7.11654 78.6771 1.07812 86.6523 1.07812ZM241.486 3.12891C244.904 3.12891 248.208 6.43294 251.398 13.041L250.373 18.168C270.197 149.19 284.097 248.995 292.072 317.582C289.794 323.962 286.262 327.152 281.477 327.152C273.501 327.152 268.716 310.062 267.121 275.883L263.361 248.881L244.562 249.906C232.714 249.906 214.826 248.425 190.9 245.463C174.038 303.113 162.531 331.938 156.379 331.938H155.695C148.404 329.887 144.758 326.241 144.758 321C163.215 275.883 183.267 198.637 204.914 89.2617C214.257 55.5378 222.801 28.3079 230.549 7.57227C233.739 4.61003 237.385 3.12891 241.486 3.12891ZM196.369 224.955C208.902 227.917 222.118 229.398 236.018 229.398H254.475C256.981 229.398 259.146 228.373 260.969 226.322L236.018 60.209H235.334C230.777 67.2728 224.169 92.11 215.51 134.721L196.369 224.955ZM365.559 0.0527344H366.584C384.585 0.736328 393.586 3.24284 393.586 7.57227V14.4082C391.991 17.8262 389.143 20.2188 385.041 21.5859L370.002 20.5605H362.482V21.5859C365.673 204.561 370.686 296.049 377.521 296.049L414.094 290.922C419.107 293.201 421.613 296.391 421.613 300.492V301.518C421.613 308.809 407.6 313.594 379.572 315.873C360.887 319.291 346.532 321 336.506 321C331.493 318.949 328.986 315.645 328.986 311.088C328.986 303.34 337.531 299.467 354.621 299.467V298.1C348.924 260.958 344.709 169.128 341.975 22.6113H340.607L309.504 28.0801C303.807 25.5736 300.959 21.6999 300.959 16.459C300.959 9.85091 315.314 5.17969 344.025 2.44531C344.025 1.30599 351.203 0.508464 365.559 0.0527344Z" fill="black"/>
</svg>
