<svg width="72" height="39" viewBox="0 0 72 39" fill="none" xmlns="http://www.w3.org/2000/svg">
<path d="M1.625 21.0156C1.65625 18.3594 1.625 15.7344 1.53125 13.1406C1.46875 10.5156 1.125 7.90625 0.5 5.3125C0.34375 4.71875 0.421875 4.23438 0.734375 3.85938C1.04688 3.45313 1.42188 3.1875 1.85938 3.0625C2.32812 2.9375 2.78125 2.96875 3.21875 3.15625C3.65625 3.34375 3.95312 3.73438 4.10938 4.32812C4.76562 6.98438 5.125 9.67188 5.1875 12.3906C5.25 15.0781 5.26562 17.7969 5.23438 20.5469C6.20312 20.6406 7.17188 20.75 8.14062 20.875C9.10938 20.9688 10.0781 21.0469 11.0469 21.1094C12.0156 21.1406 12.9688 21.1406 13.9062 21.1094C14.875 21.0469 15.8281 20.8906 16.7656 20.6406C17.0156 20.5469 17.2812 20.5312 17.5625 20.5938C17.6562 19.1875 17.7812 17.8125 17.9375 16.4688C18.0938 15.0938 18.1875 13.7031 18.2188 12.2969C18.2812 10.7969 18.25 9.3125 18.125 7.84375C18 6.375 17.8594 4.89062 17.7031 3.39062C17.6406 2.89063 17.8125 2.45312 18.2188 2.07812C18.625 1.70312 19.0781 1.51562 19.5781 1.51562C20.1094 1.51562 20.5312 1.70312 20.8438 2.07812C21.1562 2.45312 21.3438 2.89063 21.4062 3.39062C21.5625 4.89062 21.7031 6.375 21.8281 7.84375C21.9844 9.3125 22.0312 10.7969 21.9688 12.2969C21.9062 13.7969 21.7812 15.2656 21.5938 16.7031C21.4375 18.1094 21.3281 19.5625 21.2656 21.0625C21.1094 23.5 21 25.9531 20.9375 28.4219C20.875 30.8594 20.9219 33.2969 21.0781 35.7344C21.1094 36.3594 20.9375 36.8125 20.5625 37.0938C20.1875 37.4062 19.7656 37.5625 19.2969 37.5625C18.8281 37.5625 18.3906 37.4062 17.9844 37.0938C17.5781 36.8125 17.3594 36.3594 17.3281 35.7344C17.2031 33.8594 17.1406 31.9688 17.1406 30.0625C17.1719 28.1562 17.2344 26.25 17.3281 24.3438C16.3281 24.5938 15.3281 24.75 14.3281 24.8125C13.3281 24.8438 12.3281 24.8438 11.3281 24.8125C10.3281 24.75 9.3125 24.6719 8.28125 24.5781C7.28125 24.4531 6.28125 24.3438 5.28125 24.25C5.3125 26 5.39062 27.7344 5.51562 29.4531C5.67188 31.1719 5.96875 32.8906 6.40625 34.6094C6.5625 35.2031 6.48438 35.7031 6.17188 36.1094C5.89062 36.4844 5.51562 36.7344 5.04688 36.8594C4.60938 36.9844 4.15625 36.9531 3.6875 36.7656C3.25 36.5781 2.96875 36.1875 2.84375 35.5938C2.3125 33.5938 1.98438 31.5938 1.85938 29.5938C1.73438 27.5625 1.65625 25.5156 1.625 23.4531C1.375 23.1094 1.25 22.7031 1.25 22.2344C1.25 21.7656 1.375 21.3594 1.625 21.0156ZM29.0938 36.3906C29.0938 36.9844 28.8906 37.4219 28.4844 37.7031C28.1094 38.0156 27.6875 38.1719 27.2188 38.1719C26.75 38.1719 26.3281 38.0156 25.9531 37.7031C25.5781 37.4219 25.3906 36.9844 25.3906 36.3906C25.3906 33.9531 25.6719 31.6094 26.2344 29.3594C26.7969 27.1094 27.5 24.875 28.3438 22.6562C28.125 22.25 28.0625 21.7969 28.1562 21.2969C28.3438 20.6406 28.75 20.2344 29.375 20.0781C30 18.5781 30.6406 17.0938 31.2969 15.625C31.9844 14.125 32.6406 12.625 33.2656 11.125C33.8906 9.625 34.4688 8.10938 35 6.57812C35.5312 5.04688 35.9688 3.48438 36.3125 1.89062C36.4062 1.42188 36.5938 1.01563 36.875 0.671875C37.1875 0.328125 37.6094 0.15625 38.1406 0.15625C38.6406 0.15625 39.0938 0.34375 39.5 0.71875C39.9062 1.0625 40.0781 1.5 40.0156 2.03125C39.9219 3.84375 39.9531 5.51562 40.1094 7.04688C40.2656 8.54688 40.5 10.0469 40.8125 11.5469C41.125 13.0156 41.4688 14.5 41.8438 16C42.25 17.4688 42.625 18.9375 42.9688 20.4062C43.3125 21.8125 43.625 23.2188 43.9062 24.625C44.1875 26.0312 44.6406 27.3906 45.2656 28.7031C45.5781 29.3594 45.9062 30 46.25 30.625C46.5938 31.2188 46.9688 31.8281 47.375 32.4531C47.75 33.0156 48.0938 33.6094 48.4062 34.2344C48.7188 34.8281 48.9375 35.4844 49.0625 36.2031C49.125 36.7031 49.0469 37.1719 48.8281 37.6094C48.6406 38.0469 48.2812 38.3438 47.75 38.5C47.3125 38.625 46.8438 38.5625 46.3438 38.3125C45.8438 38.0625 45.5469 37.6875 45.4531 37.1875C45.3281 36.4688 45.0781 35.8281 44.7031 35.2656C44.3594 34.7031 44 34.125 43.625 33.5312C43.1875 32.8438 42.7812 32.1562 42.4062 31.4688C42.0625 30.75 41.75 30.0156 41.4688 29.2656C41.1562 28.4844 40.8906 27.7031 40.6719 26.9219C40.4531 26.1094 40.25 25.2969 40.0625 24.4844C38.6562 24.3906 37.2656 24.3281 35.8906 24.2969C34.5469 24.2344 33.1875 24.125 31.8125 23.9688C31.0625 25.9688 30.4219 28 29.8906 30.0625C29.3906 32.125 29.125 34.2344 29.0938 36.3906ZM33.5 19.7969C33.4375 19.8906 33.3906 20 33.3594 20.125C33.3594 20.2188 33.3281 20.3125 33.2656 20.4062C34.2656 20.5 35.25 20.5625 36.2188 20.5938C37.1875 20.5938 38.1719 20.625 39.1719 20.6875C38.8281 19.1875 38.4531 17.7031 38.0469 16.2344C37.6719 14.7344 37.3281 13.2188 37.0156 11.6875C36.4531 13.0625 35.875 14.4219 35.2812 15.7656C34.6875 17.0781 34.0938 18.4219 33.5 19.7969ZM50.6562 37C50.0938 36.8438 49.7188 36.5312 49.5312 36.0625C49.3438 35.5938 49.3125 35.1406 49.4375 34.7031C49.5625 34.2656 49.8125 33.9062 50.1875 33.625C50.5938 33.3125 51.0781 33.2344 51.6406 33.3906C52.8906 33.7656 54.1406 34 55.3906 34.0938C56.6406 34.1875 57.9219 34.2031 59.2344 34.1406C58.7031 31.9219 58.4375 29.7031 58.4375 27.4844C58.4375 25.2344 58.5156 23 58.6719 20.7812C58.8594 18.5312 59.0312 16.2812 59.1875 14.0312C59.375 11.7812 59.3906 9.53125 59.2344 7.28125C58.0469 7.25 56.8438 7.20312 55.625 7.14062C54.4375 7.04688 53.25 6.92188 52.0625 6.76562C51.5312 6.70312 51.0781 6.51562 50.7031 6.20312C50.3594 5.89062 50.1875 5.46875 50.1875 4.9375C50.1875 4.46875 50.3594 4.03125 50.7031 3.625C51.0781 3.1875 51.5312 3 52.0625 3.0625C53.5 3.21875 54.9375 3.35938 56.375 3.48438C57.8438 3.57812 59.2969 3.60937 60.7344 3.57812C62.1719 3.54688 63.5938 3.42187 65 3.20312C66.4375 2.98438 67.8594 2.625 69.2656 2.125C69.7344 1.96875 70.1875 2.03125 70.625 2.3125C71.0938 2.59375 71.4062 2.96875 71.5625 3.4375C71.7188 3.96875 71.6562 4.45312 71.375 4.89062C71.125 5.29688 70.75 5.57812 70.25 5.73438C67.9062 6.54688 65.4688 7.03125 62.9375 7.1875C63.125 9.40625 63.125 11.6406 62.9375 13.8906C62.75 16.1406 62.5625 18.375 62.375 20.5938C62.1875 22.8125 62.0938 25.0312 62.0938 27.25C62.125 29.4688 62.4219 31.6719 62.9844 33.8594C63.9844 33.7656 64.9688 33.6719 65.9375 33.5781C66.9062 33.4844 67.875 33.4062 68.8438 33.3438C69.4375 33.3125 69.875 33.4844 70.1562 33.8594C70.4688 34.2031 70.625 34.6094 70.625 35.0781C70.625 35.5469 70.4688 35.9844 70.1562 36.3906C69.875 36.7969 69.4375 37.0156 68.8438 37.0469C67.3125 37.1406 65.7812 37.2656 64.25 37.4219C62.75 37.6094 61.2344 37.7344 59.7031 37.7969C58.2031 37.8906 56.6875 37.8906 55.1562 37.7969C53.6562 37.7031 52.1562 37.4375 50.6562 37Z" fill="black"/>
</svg>
